<svg xmlns="http://www.w3.org/2000/svg" viewBox="0 0 512 512" width="512" height="512">
<rect x="36" y="36" width="440" height="440" fill="none" stroke="#C22740" stroke-width="7"/>
<path transform="translate(138.00,340.96) scale(0.236000,-0.236000)" fill="#C22740" d="M343 764H950V687H343ZM317 181H964V100H317ZM598 844H692V596H598ZM499 455V402H788V455ZM499 344V289H788V344ZM499 565V512H788V565ZM414 626H876V229H414ZM690 56 759 104Q797 81 836.5 55.0Q876 29 911.5 5.0Q947 -19 972 -40L883 -86Q861 -67 829.0 -42.0Q797 -17 761.0 8.5Q725 34 690 56ZM504 95 591 66Q564 36 526.5 7.0Q489 -22 447.0 -46.0Q405 -70 366 -87Q358 -79 345.5 -66.5Q333 -54 320.0 -42.5Q307 -31 297 -24Q355 -2 412.5 29.0Q470 60 504 95ZM162 844H252V-83H162ZM73 649 136 641Q136 595 130.5 543.5Q125 492 113.5 444.5Q102 397 84 362L23 389Q40 421 51.0 464.5Q62 508 67.5 556.5Q73 605 73 649ZM247 657 303 678Q318 647 331.5 611.5Q345 576 355.0 542.5Q365 509 369 484L308 458Q305 484 295.5 518.5Q286 553 273.5 589.5Q261 626 247 657Z"/>
</svg>