<?xml version="1.0" encoding="UTF-8"?>
<svg id="_レイヤー_1" data-name="レイヤー 1" xmlns="http://www.w3.org/2000/svg" viewBox="0 0 575 58.37">
  <defs>
    <style>
      .cls-1, .cls-2 {
        fill: #c22740;
      }

      .cls-2 {
        isolation: isolate;
        opacity: .45;
      }
    </style>
  </defs>
  <g>
    <path class="cls-1" d="M28.22.96h3.26v52.29c0,1.45-.22,2.49-.67,3.1s-1.16,1.06-2.14,1.31-2.42.43-4.32.51-4.32.11-7.26.06c-.04-.26-.15-.58-.32-.96s-.33-.78-.48-1.18-.33-.78-.54-1.12c1.66.04,3.23.07,4.7.1s2.74.02,3.81,0,1.81-.03,2.24-.03c.64-.04,1.09-.18,1.34-.42.26-.23.38-.67.38-1.31V.96ZM43.71,16.96l2.94-1.15c1.92,3.03,3.77,6.25,5.54,9.66s3.32,6.74,4.64,9.98c1.32,3.24,2.26,6.12,2.82,8.64l-3.26,1.34c-.51-2.47-1.41-5.35-2.69-8.64-1.28-3.29-2.78-6.66-4.51-10.11s-3.55-6.7-5.47-9.73ZM11.46,16.19l3.39.51c-.68,3.07-1.57,6.3-2.66,9.7s-2.42,6.66-4,9.79-3.37,5.9-5.38,8.29c-.26-.17-.54-.36-.86-.58s-.65-.42-.99-.61-.66-.35-.96-.48c2.01-2.3,3.75-4.97,5.25-8,1.49-3.03,2.76-6.17,3.81-9.41s1.85-6.31,2.4-9.22Z"/>
    <path class="cls-1" d="M96.64,14.08h27.84v3.01h-27.84v-3.01ZM108.74,0h3.07v58.05h-3.07V0ZM108.29,15.23l2.56.83c-.77,3.03-1.74,6.09-2.91,9.18s-2.49,6.08-3.94,8.96-3.01,5.54-4.67,7.97-3.35,4.5-5.06,6.21c-.21-.43-.52-.91-.93-1.44s-.78-.97-1.12-1.31c1.66-1.58,3.3-3.5,4.9-5.76s3.13-4.75,4.58-7.46,2.74-5.54,3.87-8.48,2.04-5.85,2.72-8.7ZM112.32,15.23c.98,3.8,2.21,7.61,3.68,11.42s3.1,7.32,4.9,10.5c1.79,3.18,3.65,5.75,5.57,7.71-.38.3-.82.68-1.31,1.15s-.89.92-1.18,1.34c-1.88-2.22-3.71-5.02-5.5-8.42s-3.42-7.08-4.9-11.07-2.7-7.99-3.68-12l2.43-.64ZM68.48,14.08h24.9v3.01h-24.9v-3.01ZM80.77,0h3.01v58.05h-3.01V0ZM80.45,15.68l2.37.83c-.68,2.6-1.54,5.29-2.56,8.06s-2.15,5.48-3.39,8.13-2.54,5.09-3.9,7.33c-1.37,2.24-2.73,4.13-4.1,5.66-.21-.38-.51-.84-.9-1.38s-.73-.97-1.02-1.31c1.37-1.45,2.71-3.22,4.03-5.31,1.32-2.09,2.59-4.36,3.81-6.82s2.31-4.98,3.3-7.58,1.77-5.14,2.37-7.62ZM83.71,18.56c.43.38,1.01.99,1.76,1.82s1.58,1.76,2.5,2.78,1.83,2.07,2.75,3.14,1.74,2.02,2.46,2.85,1.24,1.44,1.54,1.82l-2.24,2.69c-.47-.77-1.17-1.77-2.11-3.01s-1.96-2.54-3.07-3.9-2.15-2.65-3.14-3.84-1.75-2.09-2.3-2.69l1.86-1.66Z"/>
    <path class="cls-1" d="M153.34,5.89h38.72v2.69h-38.72v-2.69ZM151.68,43.26h41.34v2.82h-41.34v-2.82ZM171.01,0h3.07v15.42h-3.07V0ZM161.22,24v5.06h22.72v-5.06h-22.72ZM161.22,31.49v5.12h22.72v-5.12h-22.72ZM161.22,16.7v4.93h22.72v-4.93h-22.72ZM158.4,14.21h28.54v24.83h-28.54V14.21ZM176.7,49.15l2.18-1.6c1.79.94,3.57,1.93,5.34,2.98,1.77,1.05,3.43,2.09,4.99,3.14,1.56,1.05,2.91,2.02,4.06,2.91l-2.82,1.79c-1.07-.94-2.35-1.93-3.84-2.98-1.49-1.05-3.09-2.1-4.8-3.17-1.71-1.07-3.41-2.09-5.12-3.07ZM164.8,47.74l2.88.9c-1.24,1.28-2.72,2.52-4.45,3.71-1.73,1.19-3.53,2.29-5.41,3.3-1.88,1-3.69,1.89-5.44,2.66-.17-.21-.39-.46-.67-.74-.28-.28-.57-.54-.86-.8s-.58-.47-.83-.64c2.69-1.02,5.4-2.27,8.13-3.74s4.95-3.02,6.66-4.64ZM143.36,0h3.01v58.05h-3.01V0ZM137.47,12.16l2.43.38c0,1.83-.14,3.81-.42,5.92s-.67,4.14-1.18,6.08-1.17,3.62-1.98,5.02l-2.3-1.09c.77-1.28,1.4-2.85,1.89-4.7.49-1.86.86-3.79,1.12-5.79s.41-3.95.45-5.82ZM147.9,11.14l2.24-.83c.64,1.24,1.25,2.58,1.82,4.03s1.08,2.86,1.5,4.22.75,2.54.96,3.52l-2.37,1.22c-.17-1.07-.47-2.3-.9-3.71s-.92-2.85-1.47-4.32-1.15-2.85-1.79-4.13Z"/>
    <path class="cls-1" d="M205.57,13.18h48.19v3.07h-48.19v-3.07ZM229.44.19h3.2v14.14h-3.2V.19ZM252.74,13.18h.7l.64-.19,2.3,1.47c-2.01,3.16-4.42,6.41-7.23,9.76s-5.87,6.63-9.15,9.86c-3.29,3.22-6.69,6.22-10.21,8.99-3.52,2.77-6.94,5.16-10.27,7.17-.3-.34-.65-.71-1.06-1.12-.41-.41-.82-.74-1.25-.99,3.29-1.92,6.65-4.22,10.08-6.91s6.77-5.61,10.02-8.77,6.2-6.33,8.86-9.5c2.67-3.18,4.85-6.18,6.56-8.99v-.77ZM214.14,40.06c1.62,3.93,3.85,6.88,6.69,8.86s6.21,3.33,10.11,4.03,8.25,1.06,13.02,1.06h16.51c-.17.26-.35.57-.54.93s-.35.74-.48,1.12-.21.73-.26,1.02h-15.36c-5.33,0-10.07-.41-14.21-1.22-4.14-.81-7.71-2.35-10.72-4.61-3.01-2.26-5.47-5.57-7.39-9.92l2.62-1.28ZM204.54,58.11l-2.94-1.6c1.49-2.01,3-4.26,4.51-6.75,1.51-2.5,2.92-5.07,4.22-7.71s2.4-5.08,3.3-7.3l2.88,1.22c-.81,1.96-1.85,4.21-3.1,6.75-1.26,2.54-2.65,5.14-4.16,7.81-1.51,2.67-3.08,5.19-4.7,7.58Z"/>
    <path class="cls-1" d="M296.06,14.98h27.9v2.94h-27.9v-2.94ZM322.56,14.98h2.94v1.79c-.17,6.87-.34,12.65-.51,17.34-.17,4.69-.38,8.52-.64,11.49-.26,2.97-.58,5.25-.96,6.85s-.83,2.72-1.34,3.36c-.51.73-1.1,1.23-1.76,1.5-.66.28-1.46.44-2.4.48-.98.04-2.28.05-3.9.03s-3.31-.1-5.06-.22c-.04-.47-.14-.99-.29-1.57s-.37-1.06-.67-1.44c2.01.17,3.83.27,5.47.29s2.78.03,3.42.03c.6.04,1.08,0,1.44-.13s.69-.38.99-.77c.47-.51.86-1.54,1.18-3.07s.61-3.79.86-6.75c.26-2.97.48-6.77.67-11.42.19-4.65.37-10.35.54-17.09v-.7ZM307.97,0h3.01c0,4.65-.06,9.28-.19,13.89s-.47,9.08-1.02,13.41-1.48,8.43-2.78,12.29c-1.3,3.86-3.1,7.38-5.41,10.56-2.3,3.18-5.27,5.92-8.9,8.22-.26-.38-.63-.79-1.12-1.22-.49-.43-.93-.77-1.31-1.02,3.58-2.13,6.49-4.73,8.7-7.78,2.22-3.05,3.96-6.44,5.22-10.18,1.26-3.73,2.15-7.69,2.69-11.87s.85-8.49.96-12.93.16-8.9.16-13.38ZM273.6,3.39h20.03v41.66h-2.94V6.27h-14.21v42.88h-2.88V3.39ZM268.93,48.77c2.35-.51,5.07-1.09,8.16-1.73,3.09-.64,6.41-1.34,9.95-2.11s7.06-1.54,10.56-2.3l.26,2.82c-3.37.77-6.76,1.55-10.18,2.34s-6.67,1.54-9.76,2.24-5.88,1.33-8.35,1.89l-.64-3.14ZM275.14,17.47h16.77v2.88h-16.77v-2.88ZM275.14,31.36h16.77v2.88h-16.77v-2.88Z"/>
  </g>
  <rect class="cls-2" x="349.5" y="0" width="1" height="58.37"/>
  <g>
    <path class="cls-1" d="M375.8,17.64c-1.9,0-3.41-.47-4.54-1.4-1.12-.94-1.78-2.27-1.98-4h1.81c.17,1.25.64,2.19,1.43,2.83s1.87.95,3.26.95c1.18,0,2.06-.22,2.66-.67s.89-1.1.89-1.96c0-.74-.2-1.33-.61-1.76-.41-.44-1.04-.8-1.9-1.09l-2.74-.95c-1.39-.48-2.41-1.07-3.08-1.75-.66-.69-1-1.56-1-2.61,0-.87.22-1.63.66-2.27s1.06-1.14,1.85-1.5,1.73-.54,2.78-.54c1.63,0,2.93.43,3.91,1.28.98.85,1.55,2.06,1.7,3.63h-1.81c-.2-1.13-.6-1.96-1.21-2.49s-1.49-.79-2.64-.79c-1.09,0-1.93.22-2.53.66s-.9,1.06-.9,1.85c0,.68.21,1.22.63,1.63s1.08.76,1.97,1.06l2.92,1.02c1.27.44,2.22,1.03,2.85,1.78s.95,1.69.95,2.84c0,1.36-.46,2.41-1.39,3.16s-2.24,1.12-3.95,1.12Z"/>
    <path class="cls-1" d="M390.82,17.43V1.14h1.85v16.29h-1.85ZM401.72,17.43V1.14h1.85v16.29h-1.85ZM391.77,8.13h10.77v1.63h-10.77v-1.63Z"/>
    <path class="cls-1" d="M414.25,17.43V1.14h1.85v16.29h-1.85Z"/>
    <path class="cls-1" d="M426.8,17.43V1.14h1.92l9.34,13.71-.27.05V1.14h1.76v16.29h-1.92l-9.34-13.71.27-.05v13.75h-1.76Z"/>
    <path class="cls-1" d="M450.23,17.43V1.14h1.92l9.34,13.71-.27.05V1.14h1.76v16.29h-1.92l-9.34-13.71.27-.05v13.75h-1.76Z"/>
    <path class="cls-1" d="M480.61,17.66c-1.13,0-2.17-.21-3.11-.62-.94-.41-1.76-1-2.45-1.76-.69-.76-1.23-1.66-1.62-2.68-.38-1.03-.58-2.15-.58-3.37,0-1.61.33-3.05,1-4.3.66-1.25,1.58-2.23,2.75-2.94,1.17-.71,2.5-1.06,3.99-1.06s2.87.35,4.04,1.06,2.08,1.69,2.75,2.94c.66,1.25,1,2.69,1,4.32,0,1.22-.19,2.35-.58,3.37-.38,1.03-.92,1.92-1.62,2.67-.69.75-1.52,1.34-2.47,1.75-.95.41-1.98.62-3.1.62ZM480.59,15.98c1.16,0,2.18-.29,3.07-.87.88-.58,1.57-1.38,2.07-2.41s.75-2.19.75-3.51-.25-2.44-.74-3.44-1.18-1.77-2.06-2.33-1.91-.84-3.09-.84-2.2.28-3.08.84c-.87.56-1.55,1.33-2.04,2.32-.48.99-.72,2.14-.72,3.45s.25,2.5.74,3.52,1.17,1.82,2.05,2.4c.87.58,1.89.87,3.05.87Z"/>
    <path class="cls-1" d="M503.74,17.64c-1.9,0-3.41-.47-4.54-1.4-1.12-.94-1.78-2.27-1.98-4h1.81c.17,1.25.64,2.19,1.43,2.83s1.87.95,3.26.95c1.18,0,2.06-.22,2.66-.67s.89-1.1.89-1.96c0-.74-.2-1.33-.61-1.76-.41-.44-1.04-.8-1.9-1.09l-2.74-.95c-1.39-.48-2.41-1.07-3.08-1.75-.66-.69-1-1.56-1-2.61,0-.87.22-1.63.66-2.27s1.06-1.14,1.85-1.5,1.73-.54,2.78-.54c1.63,0,2.93.43,3.91,1.28.98.85,1.55,2.06,1.7,3.63h-1.81c-.2-1.13-.6-1.96-1.21-2.49s-1.49-.79-2.64-.79c-1.09,0-1.93.22-2.53.66s-.9,1.06-.9,1.85c0,.68.21,1.22.63,1.63s1.08.76,1.97,1.06l2.92,1.02c1.27.44,2.22,1.03,2.85,1.78s.95,1.69.95,2.84c0,1.36-.46,2.41-1.39,3.16s-2.24,1.12-3.95,1.12Z"/>
    <path class="cls-1" d="M524.85,17.66c-1.96,0-3.49-.6-4.58-1.8-1.09-1.2-1.64-2.88-1.64-5.03V1.14h1.85v9.77c0,1.63.38,2.88,1.13,3.76.75.87,1.83,1.31,3.23,1.31s2.53-.43,3.28-1.3c.75-.87,1.13-2.12,1.13-3.77V1.14h1.85v9.7c0,2.14-.55,3.81-1.65,5.01-1.1,1.2-2.64,1.8-4.61,1.8Z"/>
    <path class="cls-1" d="M541.66,17.43V1.14h1.85v16.29h-1.85ZM543.31,8.97l8.46-7.83h2.6l-8.64,7.83h-2.42ZM552.13,17.43l-8.87-8.46h2.47l9.09,8.46h-2.69Z"/>
    <path class="cls-1" d="M564.1,17.43V1.14h1.85v16.29h-1.85ZM565.05,17.43v-1.63h9.95v1.63h-9.95ZM565.05,9.76v-1.63h9.14v1.63h-9.14ZM565.05,2.77v-1.63h9.77v1.63h-9.77Z"/>
    <path class="cls-1" d="M370.28,57.25v-16.29h1.85v16.29h-1.85ZM371.93,48.79l8.46-7.83h2.6l-8.64,7.83h-2.42ZM380.75,57.25l-8.87-8.46h2.47l9.09,8.46h-2.69Z"/>
    <path class="cls-1" d="M399.66,57.47c-1.13,0-2.17-.21-3.11-.62-.94-.41-1.76-1-2.45-1.76-.69-.76-1.23-1.66-1.62-2.68-.38-1.03-.58-2.15-.58-3.37,0-1.61.33-3.05,1-4.3.66-1.25,1.58-2.23,2.75-2.94,1.17-.71,2.5-1.06,3.99-1.06s2.87.35,4.04,1.06,2.08,1.69,2.75,2.94c.66,1.25,1,2.69,1,4.32,0,1.22-.19,2.35-.58,3.37-.38,1.03-.92,1.92-1.62,2.67-.69.75-1.52,1.34-2.47,1.75-.95.41-1.98.62-3.1.62ZM399.64,55.8c1.16,0,2.18-.29,3.07-.87.88-.58,1.57-1.38,2.07-2.41s.75-2.19.75-3.51-.25-2.44-.74-3.44-1.18-1.77-2.06-2.33-1.91-.84-3.09-.84-2.2.28-3.08.84c-.87.56-1.55,1.33-2.04,2.32-.48.99-.72,2.14-.72,3.45s.25,2.5.74,3.52,1.17,1.82,2.05,2.4c.87.58,1.89.87,3.05.87Z"/>
    <path class="cls-1" d="M418.52,57.25v-1.54h5.2c1,0,1.79-.27,2.38-.81s.88-1.27.88-2.19c0-.98-.31-1.76-.93-2.35s-1.45-.88-2.49-.88h-5.04v-1.49h4.8c1.03,0,1.82-.25,2.4-.75s.86-1.2.86-2.1c0-.84-.27-1.49-.8-1.95s-1.32-.68-2.34-.68h-4.91v-1.54h5.07c1.49,0,2.67.35,3.54,1.06.87.71,1.3,1.67,1.3,2.9,0,.77-.17,1.46-.52,2.06s-.82,1.07-1.43,1.41c-.6.34-1.3.51-2.08.51l.11-.48c.83,0,1.57.2,2.23.59s1.18.92,1.56,1.59.58,1.44.58,2.3-.21,1.62-.62,2.27-1,1.16-1.75,1.53c-.75.36-1.63.54-2.62.54h-5.36ZM417.29,57.25v-16.29h1.85v16.29h-1.85Z"/>
    <path class="cls-1" d="M437.34,57.25l6.29-16.29h1.63l-6.13,16.29h-1.79ZM450.28,57.25l-6.13-16.29h1.74l6.29,16.29h-1.9ZM440.46,50.66h8.51v1.63h-8.51v-1.63Z"/>
    <path class="cls-1" d="M466.48,57.25v-7.37l-6.18-8.91h2.26l5.36,7.83h-.86l5.36-7.83h2.08l-6.18,8.91v7.37h-1.85Z"/>
    <path class="cls-1" d="M482.67,57.25l6.29-16.29h1.63l-6.13,16.29h-1.79ZM495.61,57.25l-6.13-16.29h1.74l6.29,16.29h-1.9ZM485.79,50.66h8.51v1.63h-8.51v-1.63Z"/>
    <path class="cls-1" d="M512.58,57.45c-1.9,0-3.41-.47-4.54-1.4-1.12-.94-1.78-2.27-1.98-4h1.81c.17,1.25.64,2.19,1.43,2.83s1.87.95,3.26.95c1.18,0,2.06-.22,2.66-.67s.89-1.1.89-1.96c0-.74-.2-1.33-.61-1.76-.41-.44-1.04-.8-1.9-1.09l-2.74-.95c-1.39-.48-2.41-1.07-3.08-1.75-.66-.69-1-1.56-1-2.61,0-.87.22-1.63.66-2.27s1.06-1.14,1.85-1.5,1.73-.54,2.78-.54c1.63,0,2.93.43,3.91,1.28.98.85,1.55,2.06,1.7,3.63h-1.81c-.2-1.13-.6-1.96-1.21-2.49s-1.49-.79-2.64-.79c-1.09,0-1.93.22-2.53.66s-.9,1.06-.9,1.85c0,.68.21,1.22.63,1.63s1.08.76,1.97,1.06l2.92,1.02c1.27.44,2.22,1.03,2.85,1.78s.95,1.69.95,2.84c0,1.36-.46,2.41-1.39,3.16s-2.24,1.12-3.95,1.12Z"/>
    <path class="cls-1" d="M527.6,57.25v-16.29h1.85v16.29h-1.85ZM538.5,57.25v-16.29h1.85v16.29h-1.85ZM528.55,47.95h10.77v1.63h-10.77v-1.63Z"/>
    <path class="cls-1" d="M551.03,57.25v-16.29h1.85v16.29h-1.85Z"/>
  </g>
</svg>