<svg xmlns="http://www.w3.org/2000/svg" viewBox="38.4 28.6 513.6 66.4" width="514" height="66">
<path transform="translate(40.00,86.00) scale(0.064000,-0.064000)" fill="#C22740" d="M479 820H530V3Q530 -31 519.5 -45.5Q509 -60 486 -66Q463 -72 418.5 -74.0Q374 -76 305 -75Q304 -69 300.0 -60.0Q296 -51 292.5 -41.5Q289 -32 284 -24Q323 -25 357.5 -25.5Q392 -26 417.0 -25.5Q442 -25 452 -25Q467 -24 473.0 -18.5Q479 -13 479 2ZM721 570 767 588Q812 517 853.5 437.0Q895 357 926.0 281.0Q957 205 970 146L919 125Q907 183 877.0 260.0Q847 337 806.5 418.0Q766 499 721 570ZM217 582 270 574Q254 502 228.5 422.5Q203 343 166.0 269.5Q129 196 82 140Q76 144 68.5 149.0Q61 154 53.0 158.5Q45 163 38 166Q85 220 120.0 291.0Q155 362 179.5 438.0Q204 514 217 582Z"/>
<path transform="translate(107.20,86.00) scale(0.064000,-0.064000)" fill="#C22740" d="M498 615H933V568H498ZM687 835H735V-72H687ZM680 597 720 584Q702 513 674.5 440.5Q647 368 613.0 300.5Q579 233 540.0 176.0Q501 119 461 79Q456 89 446.5 101.5Q437 114 429 122Q468 159 505.5 212.0Q543 265 577.0 328.5Q611 392 637.5 461.0Q664 530 680 597ZM743 597Q766 508 800.5 418.5Q835 329 877.0 254.5Q919 180 964 134Q955 127 943.5 116.0Q932 105 925 95Q881 147 839.0 226.5Q797 306 762.5 399.5Q728 493 705 587ZM58 615H447V568H58ZM250 835H297V-72H250ZM245 590 282 577Q266 516 242.0 451.0Q218 386 189.0 324.0Q160 262 128.0 209.5Q96 157 64 121Q59 130 50.0 142.5Q41 155 34 163Q66 197 97.0 246.0Q128 295 156.5 352.5Q185 410 208.0 471.0Q231 532 245 590ZM296 545Q306 536 323.5 516.5Q341 497 362.5 473.0Q384 449 405.5 424.0Q427 399 444.0 379.5Q461 360 468 351L433 309Q422 327 400.0 356.0Q378 385 352.0 417.0Q326 449 303.0 477.0Q280 505 267 519Z"/>
<path transform="translate(174.40,86.00) scale(0.064000,-0.064000)" fill="#C22740" d="M334 743H939V701H334ZM308 159H954V115H308ZM610 835H658V594H610ZM457 460V381H812V460ZM457 343V263H812V343ZM457 574V497H812V574ZM413 613H859V225H413ZM699 67 733 92Q775 70 816.5 45.5Q858 21 894.5 -3.5Q931 -28 958 -49L914 -77Q889 -55 854.0 -30.5Q819 -6 779.0 19.0Q739 44 699 67ZM513 89 558 75Q529 45 488.5 17.0Q448 -11 404.0 -34.5Q360 -58 319 -76Q315 -71 308.5 -64.5Q302 -58 295.0 -52.0Q288 -46 282 -42Q345 -18 409.0 16.5Q473 51 513 89ZM178 835H225V-72H178ZM86 645 124 639Q124 596 117.5 546.5Q111 497 99.0 451.5Q87 406 68 373L32 390Q50 420 61.5 463.5Q73 507 79.0 554.0Q85 601 86 645ZM249 661 284 674Q299 645 312.5 611.0Q326 577 336.0 545.0Q346 513 351 490L314 471Q310 496 300.0 529.0Q290 562 277.0 596.5Q264 631 249 661Z"/>
<path transform="translate(241.60,86.00) scale(0.064000,-0.064000)" fill="#C22740" d="M100 629H853V581H100ZM473 832H523V611H473ZM837 629H848L858 632L894 609Q847 535 781.0 456.5Q715 378 638.0 302.5Q561 227 478.5 162.0Q396 97 318 50Q311 58 301.5 67.5Q292 77 282 83Q359 128 439.5 191.0Q520 254 596.0 328.0Q672 402 734.5 476.5Q797 551 837 617ZM234 209Q272 117 338.5 70.5Q405 24 496.5 7.5Q588 -9 700 -9Q709 -9 733.5 -9.0Q758 -9 791.0 -9.0Q824 -9 858.0 -9.0Q892 -9 919.0 -9.0Q946 -9 958 -9Q954 -15 949.5 -23.5Q945 -32 942.0 -41.0Q939 -50 938 -57H884H698Q573 -57 476.0 -38.0Q379 -19 308.5 34.0Q238 87 193 189ZM84 -73 38 -48Q73 -1 108.5 57.5Q144 116 174.5 178.0Q205 240 226 292L271 273Q252 227 222.5 167.5Q193 108 157.5 45.5Q122 -17 84 -73Z"/>
<path transform="translate(308.80,86.00) scale(0.064000,-0.064000)" fill="#C22740" d="M464 601H900V555H464ZM878 601H924Q924 601 924.0 595.5Q924 590 924.0 583.5Q924 577 924 573Q920 412 916.0 302.0Q912 192 906.0 122.5Q900 53 891.0 15.5Q882 -22 870 -37Q858 -54 842.5 -60.5Q827 -67 805 -68Q782 -69 744.0 -68.5Q706 -68 665 -65Q664 -54 660.5 -40.5Q657 -27 650 -18Q697 -22 735.5 -22.5Q774 -23 789 -23Q803 -24 811.5 -21.0Q820 -18 827 -9Q838 3 845.5 39.0Q853 75 859.0 144.5Q865 214 869.5 323.0Q874 432 878 590ZM650 835H697Q697 726 694.0 618.0Q691 510 678.0 408.5Q665 307 634.5 216.5Q604 126 550.0 51.5Q496 -23 411 -77Q405 -68 393.5 -58.0Q382 -48 373 -42Q457 8 509.0 79.5Q561 151 590.5 238.5Q620 326 632.5 424.0Q645 522 647.5 626.0Q650 730 650 835ZM113 782H426V131H380V737H158V67H113ZM40 73Q95 85 167.5 100.0Q240 115 323.0 133.0Q406 151 488 169L492 125Q413 107 333.0 88.5Q253 70 180.5 53.5Q108 37 50 24ZM137 562H399V517H137ZM137 345H399V300H137Z"/>
<rect x="402.80" y="40" width="1" height="48" fill="#C22740" opacity="0.45"/>
<path transform="translate(433.80,60.00) scale(0.012500,-0.012500)" fill="#C22740" d="M330 -9Q204 -9 129.5 53.0Q55 115 42 230H122Q133 147 185.0 105.0Q237 63 329 63Q407 63 446.5 92.5Q486 122 486 179Q486 228 459.0 257.0Q432 286 375 305L254 347Q162 379 118.0 424.5Q74 470 74 540Q74 598 103.0 640.5Q132 683 185.0 707.0Q238 731 308 731Q416 731 481.0 674.5Q546 618 556 514H476Q463 589 422.5 624.0Q382 659 306 659Q234 659 194.0 630.0Q154 601 154 548Q154 503 182.0 476.0Q210 449 269 429L398 384Q482 355 524.0 305.5Q566 256 566 180Q566 90 504.5 40.5Q443 -9 330 -9Z"/>
<path transform="translate(445.15,60.00) scale(0.012500,-0.012500)" fill="#C22740" d="M86 0V720H168V0ZM568 0V720H650V0ZM128 411H604V339H128Z"/>
<path transform="translate(458.10,60.00) scale(0.012500,-0.012500)" fill="#C22740" d="M86 0V720H168V0Z"/>
<path transform="translate(465.03,60.00) scale(0.012500,-0.012500)" fill="#C22740" d="M86 0V720H171L584 114L572 112V720H650V0H565L152 606L164 608V0Z"/>
<path transform="translate(477.98,60.00) scale(0.012500,-0.012500)" fill="#C22740" d="M86 0V720H171L584 114L572 112V720H650V0H565L152 606L164 608V0Z"/>
<path transform="translate(490.93,60.00) scale(0.012500,-0.012500)" fill="#C22740" d="M393 -10Q318 -10 255.5 17.5Q193 45 147.0 95.5Q101 146 75.5 214.0Q50 282 50 363Q50 470 94.0 553.0Q138 636 215.5 683.0Q293 730 392 730Q493 730 570.5 683.0Q648 636 692.0 553.0Q736 470 736 362Q736 281 710.5 213.0Q685 145 639.0 95.0Q593 45 530.0 17.5Q467 -10 393 -10ZM392 64Q469 64 527.5 102.5Q586 141 619.0 209.0Q652 277 652 364Q652 450 619.5 516.0Q587 582 528.5 619.0Q470 656 392 656Q314 656 256.0 619.0Q198 582 166.0 516.5Q134 451 134 364Q134 276 166.5 208.5Q199 141 257.0 102.5Q315 64 392 64Z"/>
<path transform="translate(504.50,60.00) scale(0.012500,-0.012500)" fill="#C22740" d="M330 -9Q204 -9 129.5 53.0Q55 115 42 230H122Q133 147 185.0 105.0Q237 63 329 63Q407 63 446.5 92.5Q486 122 486 179Q486 228 459.0 257.0Q432 286 375 305L254 347Q162 379 118.0 424.5Q74 470 74 540Q74 598 103.0 640.5Q132 683 185.0 707.0Q238 731 308 731Q416 731 481.0 674.5Q546 618 556 514H476Q463 589 422.5 624.0Q382 659 306 659Q234 659 194.0 630.0Q154 601 154 548Q154 503 182.0 476.0Q210 449 269 429L398 384Q482 355 524.0 305.5Q566 256 566 180Q566 90 504.5 40.5Q443 -9 330 -9Z"/>
<path transform="translate(515.85,60.00) scale(0.012500,-0.012500)" fill="#C22740" d="M355 -10Q225 -10 152.5 69.5Q80 149 80 292V720H162V288Q162 180 212.0 122.0Q262 64 355 64Q450 64 500.0 121.5Q550 179 550 288V720H632V291Q632 149 559.0 69.5Q486 -10 355 -10Z"/>
<path transform="translate(528.50,60.00) scale(0.012500,-0.012500)" fill="#C22740" d="M86 0V720H168V0ZM159 374 533 720H648L266 374ZM549 0 157 374H266L668 0Z"/>
<path transform="translate(540.90,60.00) scale(0.012500,-0.012500)" fill="#C22740" d="M86 0V720H168V0ZM128 0V72H568V0ZM128 339V411H532V339ZM128 648V720H560V648Z"/>
<path transform="translate(433.80,82.00) scale(0.012500,-0.012500)" fill="#C22740" d="M86 0V720H168V0ZM159 374 533 720H648L266 374ZM549 0 157 374H266L668 0Z"/>
<path transform="translate(446.20,82.00) scale(0.012500,-0.012500)" fill="#C22740" d="M393 -10Q318 -10 255.5 17.5Q193 45 147.0 95.5Q101 146 75.5 214.0Q50 282 50 363Q50 470 94.0 553.0Q138 636 215.5 683.0Q293 730 392 730Q493 730 570.5 683.0Q648 636 692.0 553.0Q736 470 736 362Q736 281 710.5 213.0Q685 145 639.0 95.0Q593 45 530.0 17.5Q467 -10 393 -10ZM392 64Q469 64 527.5 102.5Q586 141 619.0 209.0Q652 277 652 364Q652 450 619.5 516.0Q587 582 528.5 619.0Q470 656 392 656Q314 656 256.0 619.0Q198 582 166.0 516.5Q134 451 134 364Q134 276 166.5 208.5Q199 141 257.0 102.5Q315 64 392 64Z"/>
<path transform="translate(459.78,82.00) scale(0.012500,-0.012500)" fill="#C22740" d="M140 0V68H370Q436 68 475.0 104.0Q514 140 514 201Q514 266 473.0 305.0Q432 344 363 344H140V410H352Q420 410 458.0 443.0Q496 476 496 536Q496 592 460.5 622.0Q425 652 357 652H140V720H364Q463 720 520.5 673.0Q578 626 578 545Q578 494 555.0 454.0Q532 414 492.0 391.5Q452 369 400 369L405 390Q460 390 503.5 364.0Q547 338 572.5 293.5Q598 249 598 192Q598 135 570.5 91.5Q543 48 493.0 24.0Q443 0 377 0ZM86 0V720H168V0Z"/>
<path transform="translate(471.48,82.00) scale(0.012500,-0.012500)" fill="#C22740" d="M36 0 314 720H386L115 0ZM608 0 337 720H414L692 0ZM174 291H550V219H174Z"/>
<path transform="translate(484.32,82.00) scale(0.012500,-0.012500)" fill="#C22740" d="M297 0V326L24 720H124L361 374H323L560 720H652L379 326V0Z"/>
<path transform="translate(496.53,82.00) scale(0.012500,-0.012500)" fill="#C22740" d="M36 0 314 720H386L115 0ZM608 0 337 720H414L692 0ZM174 291H550V219H174Z"/>
<path transform="translate(509.38,82.00) scale(0.012500,-0.012500)" fill="#C22740" d="M330 -9Q204 -9 129.5 53.0Q55 115 42 230H122Q133 147 185.0 105.0Q237 63 329 63Q407 63 446.5 92.5Q486 122 486 179Q486 228 459.0 257.0Q432 286 375 305L254 347Q162 379 118.0 424.5Q74 470 74 540Q74 598 103.0 640.5Q132 683 185.0 707.0Q238 731 308 731Q416 731 481.0 674.5Q546 618 556 514H476Q463 589 422.5 624.0Q382 659 306 659Q234 659 194.0 630.0Q154 601 154 548Q154 503 182.0 476.0Q210 449 269 429L398 384Q482 355 524.0 305.5Q566 256 566 180Q566 90 504.5 40.5Q443 -9 330 -9Z"/>
<path transform="translate(520.73,82.00) scale(0.012500,-0.012500)" fill="#C22740" d="M86 0V720H168V0ZM568 0V720H650V0ZM128 411H604V339H128Z"/>
<path transform="translate(533.68,82.00) scale(0.012500,-0.012500)" fill="#C22740" d="M86 0V720H168V0Z"/>
</svg>